<svg xmlns="http://www.w3.org/2000/svg" width="252" height="252" fill="none" viewBox="0 0 252 252">
  <path fill="#A37CB6" d="M24.042 149.992c-13.278-13.278-13.278-34.805 0-48.083L95.33 30.62l68.936 68.935-95.33 95.331-44.894-44.894Z"/>
  <path fill="#A37CB6" d="M67.728 193.679 193.68 67.729l34.279 34.279c13.278 13.278 13.278 34.805 0 48.083l-77.867 77.867c-13.278 13.278-34.805 13.278-48.083 0l-34.28-34.279Z"/>
  <path fill="#B4469D" d="M101.909 24.042c13.278-13.278 34.805-13.278 48.083 0l43.687 43.686-46.186 46.185c-13.277 13.278-34.805 13.278-48.083 0L71.987 86.49c-8.982-8.982-8.982-23.544 0-32.527l29.922-29.921Z"/>
  <path fill="#BE357F" d="M68.916 133.747c0-18.778 15.223-34 34-34h61.057v61.057c0 18.778-15.222 34-34 34H68.916v-61.057Z"/>
  <path fill="#BE357F" d="M68.916 133.747c0-18.778 15.223-34 34-34h61.057v61.057c0 18.778-15.222 34-34 34H68.916v-61.057Z"/>
  <path fill="#C42A79" d="M121.198 109.316c0-22.969 18.619-41.588 41.587-41.588h30.894v34.59c0 22.239-18.029 40.268-40.268 40.268-17.791 0-32.213-14.423-32.213-32.214v-1.056Z"/>
  <g filter="url(#a)">
    <path fill="#fff" d="M179.42 125.951c0 29.53-23.939 53.469-53.469 53.469s-53.47-23.939-53.47-53.469 23.94-53.47 53.47-53.47c29.53 0 53.469 23.94 53.469 53.47Zm-87.077 0c0 18.56 15.047 33.607 33.608 33.607 18.56 0 33.607-15.047 33.607-33.607 0-18.561-15.047-33.608-33.607-33.608-18.561 0-33.608 15.047-33.608 33.608Z"/>
  </g>
  <g filter="url(#b)">
    <rect width="24.159" height="58.681" x="125.951" y="150.162" fill="#fff" rx="10.166" transform="rotate(-45 125.951 150.162)"/>
  </g>
  <defs>
    <filter id="a" width="108.939" height="112.939" x="71.481" y="72.481" color-interpolation-filters="sRGB" filterUnits="userSpaceOnUse">
      <feFlood flood-opacity="0" result="BackgroundImageFix"/>
      <feColorMatrix in="SourceAlpha" result="hardAlpha" values="0 0 0 0 0 0 0 0 0 0 0 0 0 0 0 0 0 0 127 0"/>
      <feOffset dy="5"/>
      <feGaussianBlur stdDeviation=".5"/>
      <feComposite in2="hardAlpha" operator="out"/>
      <feColorMatrix values="0 0 0 0 0 0 0 0 0 0 0 0 0 0 0 0 0 0 0.25 0"/>
      <feBlend in2="BackgroundImageFix" result="effect1_dropShadow_1_28"/>
      <feBlend in="SourceGraphic" in2="effect1_dropShadow_1_28" result="shape"/>
    </filter>
    <filter id="b" width="52.155" height="55.155" x="129.161" y="137.291" color-interpolation-filters="sRGB" filterUnits="userSpaceOnUse">
      <feFlood flood-opacity="0" result="BackgroundImageFix"/>
      <feColorMatrix in="SourceAlpha" result="hardAlpha" values="0 0 0 0 0 0 0 0 0 0 0 0 0 0 0 0 0 0 127 0"/>
      <feOffset dy="4"/>
      <feGaussianBlur stdDeviation=".5"/>
      <feComposite in2="hardAlpha" operator="out"/>
      <feColorMatrix values="0 0 0 0 0 0 0 0 0 0 0 0 0 0 0 0 0 0 0.25 0"/>
      <feBlend in2="BackgroundImageFix" result="effect1_dropShadow_1_28"/>
      <feBlend in="SourceGraphic" in2="effect1_dropShadow_1_28" result="shape"/>
    </filter>
  </defs>
</svg>
